<?xml version="1.0" standalone="no"?>
<!DOCTYPE svg PUBLIC "-//W3C//DTD SVG 20010904//EN"
 "http://www.w3.org/TR/2001/REC-SVG-20010904/DTD/svg10.dtd">
<svg version="1.0" xmlns="http://www.w3.org/2000/svg"
 width="700.000000pt" height="700.000000pt" viewBox="0 0 700.000000 700.000000"
 preserveAspectRatio="xMidYMid meet">
<metadata>
Created by potrace 1.14, written by Peter Selinger 2001-2017
</metadata>
<g transform="translate(0.000000,700.000000) scale(0.100000,-0.100000)"
fill="#000000" stroke="none">
<path d="M968 6945 c-380 -60 -707 -325 -851 -690 -78 -198 -72 40 -72 -2755
0 -2373 1 -2499 18 -2580 96 -451 463 -796 917 -865 142 -22 4898 -22 5040 0
488 74 859 452 930 950 6 45 10 940 10 2495 0 2635 2 2520 -55 2694 -104 317
-339 567 -650 689 -198 78 55 71 -2720 73 -2047 2 -2495 0 -2567 -11z m5090
-487 c101 -37 173 -82 246 -154 72 -73 117 -145 154 -246 l27 -73 0 -2485 0
-2485 -27 -73 c-37 -101 -82 -173 -154 -246 -73 -72 -145 -117 -246 -154 l-73
-27 -2485 0 -2485 0 -73 27 c-101 37 -173 82 -246 154 -72 73 -117 145 -154
246 l-27 73 -3 2453 c-2 2681 -6 2518 56 2653 81 177 248 313 437 354 49 11
514 13 2520 12 l2460 -2 73 -27z"/>
<path d="M1890 5739 c-469 -121 -673 -644 -406 -1038 263 -386 860 -404 1146
-34 98 128 141 254 141 413 0 162 -45 291 -145 417 -98 121 -227 204 -382 243
-102 26 -251 26 -354 -1z m321 -205 c230 -67 380 -299 341 -526 -31 -179 -158
-325 -331 -378 -86 -27 -217 -27 -305 0 -133 41 -255 156 -307 287 -33 83 -33
243 0 326 51 130 173 245 304 286 79 25 221 28 298 5z"/>
<path d="M3068 5151 c-45 -40 -46 -96 -3 -141 l29 -30 1238 0 1238 0 32 29
c27 24 33 36 33 71 0 35 -6 47 -33 71 l-32 29 -1235 0 -1235 0 -32 -29z"/>
<path d="M1890 4159 c-312 -81 -524 -347 -524 -659 0 -380 311 -680 704 -680
325 0 606 213 685 519 21 84 21 238 0 322 -63 244 -258 435 -511 499 -102 26
-251 26 -354 -1z m331 -209 c172 -53 300 -199 331 -378 38 -224 -107 -453
-331 -522 -86 -27 -217 -27 -305 0 -133 41 -255 156 -307 287 -33 83 -33 243
0 326 51 130 173 245 304 286 85 27 223 28 308 1z"/>
<path d="M3068 3571 c-27 -24 -33 -36 -33 -71 0 -35 6 -47 33 -71 l32 -29
1235 0 1235 0 32 29 c27 24 33 36 33 71 0 35 -6 47 -33 71 l-32 29 -1235 0
-1235 0 -32 -29z"/>
<path d="M1890 2580 c-374 -97 -598 -465 -504 -828 77 -300 361 -512 684 -512
324 0 606 214 685 519 21 84 21 238 0 322 -63 244 -258 435 -509 499 -104 26
-253 26 -356 0z m331 -210 c225 -69 369 -297 331 -522 -31 -177 -147 -313
-322 -375 -87 -30 -220 -32 -314 -3 -133 41 -255 156 -307 287 -33 83 -33 243
0 326 51 130 173 245 304 286 85 27 223 28 308 1z"/>
<path d="M3065 1990 c-43 -45 -42 -101 3 -141 l32 -29 1235 0 1235 0 32 29
c27 24 33 36 33 71 0 35 -6 47 -33 71 l-32 29 -1238 0 -1238 0 -29 -30z"/>
</g>
</svg>
